<svg xmlns="http://www.w3.org/2000/svg" width="96.685" height="20.032" fill="none" overflow="visible"><path fill="#1D2029" d="M20.032 10.769h-3.588a5.675 5.675 0 0 0-5.675 5.675v3.588a10.046 10.046 0 0 0 9.263-9.263ZM9.263 20.032v-3.588a5.675 5.675 0 0 0-5.675-5.675H0a10.046 10.046 0 0 0 9.263 9.263ZM20.032 9.263A10.046 10.046 0 0 0 10.769 0v3.588a5.675 5.675 0 0 0 5.675 5.675ZM9.263 0A10.046 10.046 0 0 0 0 9.263h3.588a5.675 5.675 0 0 0 5.675-5.675Zm-2.47 10.016a7.21 7.21 0 0 0 3.223-3.223 7.21 7.21 0 0 0 3.223 3.223 7.21 7.21 0 0 0-3.223 3.223 7.21 7.21 0 0 0-3.223-3.223Zm25.434 6.696h-2.61l-2.824-9.571h2.694l.832 3.536c.143.634.297 1.324.46 2.068.167.745.319 1.568.456 2.469h-.29a36.93 36.93 0 0 1 .485-2.439l.496-2.098.876-3.536h2.359l.852 3.536c.147.644.308 1.339.485 2.083.177.745.343 1.563.496 2.454h-.29c.137-.884.284-1.699.44-2.444.157-.744.309-1.442.456-2.093l.831-3.536h2.73l-2.84 9.571h-2.609l-1.062-3.691c-.103-.371-.207-.78-.31-1.227-.1-.448-.2-.903-.301-1.367a33.223 33.223 0 0 0-.295-1.307h.451c-.097.404-.196.839-.296 1.307-.1.464-.2.921-.3 1.372-.104.451-.207.858-.311 1.222Zm11.828.19a4.01 4.01 0 0 1-1.632-.32 2.606 2.606 0 0 1-1.137-.962c-.277-.424-.416-.953-.416-1.588 0-.53.099-.976.296-1.337.197-.357.466-.644.806-.861a4.001 4.001 0 0 1 1.152-.496 8.628 8.628 0 0 1 1.357-.24c.554-.057 1.002-.11 1.342-.16.338-.047.585-.124.742-.231a.522.522 0 0 0 .235-.466v-.045c0-.273-.057-.504-.17-.691a1.099 1.099 0 0 0-.506-.43c-.221-.101-.494-.151-.822-.151-.33 0-.617.05-.861.151-.247.1-.447.232-.601.395a1.633 1.633 0 0 0-.34.556l-2.354-.391a3.285 3.285 0 0 1 .821-1.412c.381-.39.855-.688 1.422-.891.568-.207 1.206-.311 1.913-.311.521 0 1.024.062 1.508.186.484.123.92.313 1.307.57.384.258.689.591.916 1.002.224.411.336.906.336 1.487v6.446H46.94v-1.327h-.085a2.74 2.74 0 0 1-.616.781 2.827 2.827 0 0 1-.932.536c-.36.133-.777.2-1.252.2Zm.727-1.808c.404 0 .759-.08 1.066-.24a1.86 1.86 0 0 0 .717-.651c.17-.274.255-.58.255-.917v-1.031a1.064 1.064 0 0 1-.346.15 4.269 4.269 0 0 1-.51.12 11.55 11.55 0 0 1-.556.095c-.184.03-.348.054-.491.07a3.136 3.136 0 0 0-.826.221 1.365 1.365 0 0 0-.556.405 1.015 1.015 0 0 0-.201.646c0 .247.064.454.191.621.123.171.293.297.51.381.214.087.463.13.747.13Zm4.717-7.953h5.674v1.964h-5.674Zm1.317 6.997v-9.27h2.564v9.044c0 .304.069.528.206.671.133.147.357.221.671.221.097 0 .234-.014.41-.04.177-.024.311-.047.401-.07l.371 1.923a5.093 5.093 0 0 1-.857.18 6.9 6.9 0 0 1-.806.05c-.958 0-1.691-.234-2.198-.701-.508-.468-.762-1.137-.762-2.008Zm9.205 2.764c-.975 0-1.816-.2-2.524-.601a4.03 4.03 0 0 1-1.628-1.703c-.38-.737-.571-1.611-.571-2.619 0-.988.189-1.853.566-2.594.378-.741.91-1.32 1.598-1.738.691-.417 1.502-.626 2.434-.626.628 0 1.212.1 1.753.301.541.2 1.016.502 1.427.906.414.401.736.903.966 1.508.231.604.346 1.317.346 2.138v.721H56.35v-1.607h6.781l-1.202.425c0-.497-.075-.93-.225-1.297a1.854 1.854 0 0 0-.676-.856c-.301-.201-.673-.301-1.117-.301-.438 0-.813.102-1.127.306-.31.207-.546.486-.706.836a2.913 2.913 0 0 0-.235 1.202v1.137c0 .554.091 1.02.275 1.397.187.377.447.66.781.846a2.35 2.35 0 0 0 1.167.281c.301 0 .574-.042.821-.125.244-.087.454-.214.631-.381.174-.17.306-.377.396-.621l2.329.436a3.308 3.308 0 0 1-.806 1.382 3.829 3.829 0 0 1-1.433.922c-.574.217-1.235.325-1.983.325Zm7.547-.19h-2.564V7.141h2.479v1.673h.105c.177-.594.473-1.043.887-1.347a2.356 2.356 0 0 1 1.422-.451c.133 0 .275.007.426.02.15.014.285.035.405.065v2.294a2.301 2.301 0 0 0-.496-.095 5.858 5.858 0 0 0-.616-.035 2.17 2.17 0 0 0-1.051.255 1.802 1.802 0 0 0-.731.701 2.007 2.007 0 0 0-.266 1.047Zm3.436-12.751h2.564v12.751h-2.564Zm6.174 12.751h-2.564V7.141h2.564ZM75.896 5.894c-.387 0-.717-.128-.991-.385a1.232 1.232 0 0 1-.411-.932c0-.367.137-.679.411-.936.274-.257.604-.386.991-.386.388 0 .72.129.997.386.277.254.416.566.416.936 0 .364-.139.675-.416.932a1.413 1.413 0 0 1-.997.385Zm4.893 5.279v5.539h-2.564V7.141h2.419l.045 2.389h-.155c.25-.798.631-1.415 1.142-1.853.511-.437 1.172-.656 1.983-.656.661 0 1.237.145 1.728.436.49.287.873.701 1.146 1.242.274.537.411 1.18.411 1.928v6.085h-2.569v-5.639c0-.595-.152-1.06-.456-1.398-.307-.337-.731-.505-1.272-.505-.36 0-.681.078-.961.235a1.627 1.627 0 0 0-.661.681c-.157.297-.236.66-.236 1.087Zm11.529 5.729c-.975 0-1.817-.2-2.524-.601a4.06 4.06 0 0 1-1.633-1.703c-.377-.737-.566-1.611-.566-2.619 0-.988.187-1.853.561-2.594a4.227 4.227 0 0 1 1.603-1.738c.691-.417 1.5-.626 2.429-.626.627 0 1.213.1 1.757.301.541.2 1.017.502 1.428.906.41.401.731.903.961 1.508.234.604.351 1.317.351 2.138v.721h-8.038v-1.607h6.776l-1.197.425c0-.497-.075-.93-.226-1.297a1.842 1.842 0 0 0-.676-.856c-.3-.201-.672-.301-1.116-.301-.441 0-.817.102-1.127.306a1.961 1.961 0 0 0-.706.836 2.85 2.85 0 0 0-.241 1.202v1.137c0 .554.094 1.02.281 1.397.183.377.442.66.776.846.334.187.724.281 1.172.281.3 0 .574-.042.821-.125.244-.087.452-.214.626-.381.174-.17.307-.377.401-.621l2.328.436a3.351 3.351 0 0 1-.806 1.382 3.873 3.873 0 0 1-1.432.922c-.574.217-1.235.325-1.983.325Z"/></svg>