<svg xmlns="http://www.w3.org/2000/svg" width="260" height="88" fill="none"><path fill="#000" d="M106.065 54.784c.426.074.645.142.827.497-.098.625-2.136 1.867-2.763 2.298-1.389.954-2.77 1.918-4.142 2.892a151.16 151.16 0 0 0-20.589 17.94c-1.541 1.593-2.892 3.383-4.373 4.901l-.095.097c-.372-.116-.618-.148-.856-.424-.074-.747 2.363-3.199 2.976-3.884 8.39-9.27 18.154-17.452 29.015-24.317Zm.166 12.063.432.195c.102.149.203.224.186.408-.056.622-4.6 4.466-5.384 5.209-2.71 2.566-5.404 5.306-7.787 8.122-1.59 1.877-3.24 4.408-5.09 6.003-.248-.12-.297-.178-.508-.351-.28-.924 1.413-2.702 2.045-3.475a117.615 117.615 0 0 1 12.268-12.93c.94-.865 2.74-2.56 3.838-3.181Zm1.127 12.054c.469.077.665.074.799.513-.121.483-5.399 5.578-6.227 6.314l-.379-.07c-.35-.294-.235-.121-.36-.537.207-1.21 4.949-5.297 6.167-6.22ZM31.363 14.144c-.086-1.963-.512-3.67-1.28-5.12a10.394 10.394 0 0 0-3.008-3.648c-1.28-.981-2.816-1.707-4.608-2.176-1.75-.512-3.67-.768-5.76-.768-1.28 0-2.667.15-4.16.448a13.009 13.009 0 0 0-4.096 1.6c-1.238.725-2.262 1.728-3.072 3.008-.811 1.237-1.216 2.795-1.216 4.672 0 1.835.448 3.328 1.344 4.48.896 1.152 2.069 2.09 3.52 2.816 1.45.683 3.114 1.237 4.992 1.664 1.877.427 3.776.832 5.696 1.216 1.962.384 3.861.853 5.696 1.408 1.877.512 3.541 1.237 4.992 2.176a10.296 10.296 0 0 1 3.584 3.584c.896 1.45 1.344 3.285 1.344 5.504 0 2.39-.512 4.395-1.536 6.016a12.837 12.837 0 0 1-3.904 3.968c-1.536 1.024-3.264 1.75-5.184 2.176-1.878.47-3.691.704-5.44.704-2.688 0-5.206-.299-7.552-.896-2.347-.555-4.395-1.472-6.144-2.752-1.75-1.323-3.136-3.008-4.16-5.056C.429 37.12-.04 34.624.003 31.68h2.816c-.128 2.517.234 4.65 1.088 6.4a11.692 11.692 0 0 0 3.52 4.224c1.536 1.11 3.328 1.92 5.376 2.432 2.048.47 4.202.704 6.464.704 1.365 0 2.816-.17 4.352-.512 1.578-.341 3.008-.917 4.288-1.728A10.164 10.164 0 0 0 31.17 40c.896-1.323 1.344-2.987 1.344-4.992 0-1.92-.448-3.477-1.344-4.672-.896-1.237-2.091-2.219-3.584-2.944-1.451-.768-3.115-1.365-4.992-1.792-1.835-.47-3.734-.896-5.696-1.28a84.982 84.982 0 0 1-5.696-1.344c-1.878-.512-3.542-1.195-4.992-2.048-1.451-.896-2.624-2.027-3.52-3.392-.896-1.408-1.344-3.2-1.344-5.376s.448-4.032 1.344-5.568c.938-1.579 2.133-2.837 3.584-3.776 1.493-.981 3.157-1.685 4.992-2.112A21.887 21.887 0 0 1 16.707 0c2.389 0 4.608.277 6.656.832 2.09.512 3.904 1.344 5.44 2.496 1.578 1.11 2.837 2.56 3.776 4.352.938 1.792 1.472 3.947 1.6 6.464h-2.816ZM55.81 16h-7.17v22.976c0 1.323.15 2.368.448 3.136.299.768.747 1.365 1.344 1.792.64.384 1.387.619 2.24.704.896.085 1.92.107 3.072.064v2.112a26.032 26.032 0 0 1-3.648 0c-1.152-.128-2.176-.448-3.072-.96-.896-.555-1.621-1.365-2.176-2.432-.512-1.067-.725-2.539-.64-4.416V16h-6.08v-2.112h6.08V3.648h2.432v10.24h7.168V16Zm9.458 5.184h.192c.298-1.067.832-2.07 1.6-3.008.81-.939 1.77-1.75 2.88-2.432a14.037 14.037 0 0 1 3.776-1.536 14.837 14.837 0 0 1 4.352-.512v2.432c-1.28-.17-2.752-.043-4.416.384-1.622.427-3.179 1.365-4.672 2.816a28.722 28.722 0 0 0-1.6 1.856 9.846 9.846 0 0 0-1.088 1.984 12.545 12.545 0 0 0-.704 2.432c-.171.896-.278 1.963-.32 3.2v17.984h-2.432V13.888h2.432v7.296Zm38.514 19.072h-.128c-.384.981-.939 1.92-1.664 2.816-.725.853-1.621 1.621-2.688 2.304-1.024.683-2.197 1.216-3.52 1.6-1.322.384-2.773.576-4.352.576-3.499 0-6.208-.747-8.128-2.24-1.92-1.536-2.88-3.883-2.88-7.04 0-1.92.384-3.477 1.152-4.672.768-1.237 1.728-2.197 2.88-2.88a12.437 12.437 0 0 1 3.904-1.536 39.56 39.56 0 0 1 4.16-.64l3.776-.32c1.75-.128 3.115-.32 4.096-.576 1.024-.299 1.792-.683 2.304-1.152.512-.512.832-1.152.96-1.92s.192-1.728.192-2.88c0-.896-.17-1.728-.512-2.496-.341-.768-.874-1.45-1.6-2.048-.725-.597-1.664-1.067-2.816-1.408-1.152-.341-2.56-.512-4.224-.512-2.944 0-5.333.725-7.168 2.176-1.792 1.45-2.773 3.648-2.944 6.592H82.15c.17-3.627 1.323-6.336 3.456-8.128 2.176-1.835 5.248-2.752 9.216-2.752 3.968 0 6.848.79 8.64 2.368 1.835 1.536 2.752 3.563 2.752 6.08v20.544c.043.47.128.896.256 1.28s.342.704.64.96c.299.213.726.32 1.28.32.427 0 1.024-.064 1.792-.192v2.048c-.64.17-1.301.256-1.984.256-.981 0-1.77-.128-2.368-.384-.554-.256-.981-.597-1.28-1.024a4.187 4.187 0 0 1-.64-1.472 13.643 13.643 0 0 1-.128-1.92v-1.728Zm0-12.16c-.597.725-1.514 1.216-2.752 1.472a32.668 32.668 0 0 1-4.032.576l-4.096.384c-1.195.128-2.39.32-3.584.576a10.233 10.233 0 0 0-3.264 1.152c-.939.555-1.707 1.323-2.304 2.304-.597.939-.896 2.176-.896 3.712 0 2.432.768 4.245 2.304 5.44 1.536 1.152 3.648 1.728 6.336 1.728 2.773 0 4.97-.49 6.592-1.472 1.621-1.024 2.859-2.176 3.712-3.456.854-1.323 1.387-2.581 1.6-3.776.256-1.237.384-2.07.384-2.496v-6.144Zm20.928 15.872h.128l8.96-30.08h3.264l9.024 30.08h.128l9.216-30.08h2.688l-10.56 32.896h-3.008l-9.024-29.824h-.128l-9.088 29.824h-3.072l-10.432-32.896h2.624l9.28 30.08Zm-5.181 8.544h3.024l13.392 31.92h.096l13.248-31.92h3.024v34.272h-2.112v-31.68h-.096l-13.056 31.68h-2.112l-13.2-31.68h-.096v31.68h-2.112V52.512Zm39.245 21.936c0-1.76.24-3.408.72-4.944.512-1.568 1.248-2.944 2.208-4.128a10.12 10.12 0 0 1 3.552-2.784c1.408-.704 3.024-1.056 4.848-1.056 1.824 0 3.44.352 4.848 1.056a10.12 10.12 0 0 1 3.552 2.784c.96 1.184 1.68 2.56 2.16 4.128.512 1.536.768 3.184.768 4.944 0 1.76-.256 3.424-.768 4.992-.48 1.568-1.2 2.944-2.16 4.128-.96 1.152-2.144 2.08-3.552 2.784-1.408.672-3.024 1.008-4.848 1.008-1.824 0-3.44-.336-4.848-1.008-1.408-.704-2.592-1.632-3.552-2.784-.96-1.184-1.696-2.56-2.208-4.128-.48-1.568-.72-3.232-.72-4.992Zm1.824 0c0 1.472.208 2.896.624 4.272a11.57 11.57 0 0 0 1.824 3.6 9.138 9.138 0 0 0 2.976 2.544c1.184.608 2.544.912 4.08.912s2.896-.304 4.08-.912a9.138 9.138 0 0 0 2.976-2.544 11.57 11.57 0 0 0 1.824-3.6c.416-1.376.624-2.8.624-4.272 0-1.472-.208-2.88-.624-4.224-.416-1.376-1.024-2.592-1.824-3.648a8.634 8.634 0 0 0-2.976-2.496c-1.184-.64-2.544-.96-4.08-.96s-2.896.32-4.08.96a8.634 8.634 0 0 0-2.976 2.496c-.8 1.056-1.408 2.272-1.824 3.648a14.204 14.204 0 0 0-.624 4.224Zm36.101-10.752h-5.376v17.232c0 .992.112 1.776.336 2.352.224.576.56 1.024 1.008 1.344.48.288 1.04.464 1.68.528.672.064 1.44.08 2.304.048v1.584c-.928.064-1.84.064-2.736 0-.864-.096-1.632-.336-2.304-.72-.672-.416-1.216-1.024-1.632-1.824-.384-.8-.544-1.904-.48-3.312V63.696h-4.56v-1.584h4.56v-7.68h1.824v7.68h5.376v1.584Zm5.702-6.24v-4.944h1.824v4.944h-1.824Zm0 29.328V62.112h1.824v24.672h-1.824Zm8.398-12.336c0-1.76.24-3.408.72-4.944.512-1.568 1.248-2.944 2.208-4.128a10.12 10.12 0 0 1 3.552-2.784c1.408-.704 3.024-1.056 4.848-1.056 1.824 0 3.44.352 4.848 1.056a10.12 10.12 0 0 1 3.552 2.784c.96 1.184 1.68 2.56 2.16 4.128.512 1.536.768 3.184.768 4.944 0 1.76-.256 3.424-.768 4.992-.48 1.568-1.2 2.944-2.16 4.128-.96 1.152-2.144 2.08-3.552 2.784-1.408.672-3.024 1.008-4.848 1.008-1.824 0-3.44-.336-4.848-1.008-1.408-.704-2.592-1.632-3.552-2.784-.96-1.184-1.696-2.56-2.208-4.128-.48-1.568-.72-3.232-.72-4.992Zm1.824 0c0 1.472.208 2.896.624 4.272a11.57 11.57 0 0 0 1.824 3.6 9.138 9.138 0 0 0 2.976 2.544c1.184.608 2.544.912 4.08.912s2.896-.304 4.08-.912a9.138 9.138 0 0 0 2.976-2.544 11.57 11.57 0 0 0 1.824-3.6c.416-1.376.624-2.8.624-4.272 0-1.472-.208-2.88-.624-4.224-.416-1.376-1.024-2.592-1.824-3.648a8.634 8.634 0 0 0-2.976-2.496c-1.184-.64-2.544-.96-4.08-.96s-2.896.32-4.08.96a8.634 8.634 0 0 0-2.976 2.496c-.8 1.056-1.408 2.272-1.824 3.648a14.204 14.204 0 0 0-.624 4.224Zm27.03-12.336h1.824v5.28h.096a7.885 7.885 0 0 1 1.344-2.448 9.517 9.517 0 0 1 2.064-1.872 9.433 9.433 0 0 1 2.592-1.152 10.602 10.602 0 0 1 2.832-.384c1.44 0 2.656.176 3.648.528 1.024.352 1.856.816 2.496 1.392a6.28 6.28 0 0 1 1.488 1.968c.384.704.656 1.424.816 2.16.16.736.256 1.456.288 2.16.032.672.048 1.264.048 1.776v15.264h-1.824v-15.6c0-.608-.048-1.376-.144-2.304a6.588 6.588 0 0 0-.864-2.64c-.448-.864-1.152-1.6-2.112-2.208-.928-.608-2.224-.912-3.888-.912-1.408 0-2.656.256-3.744.768a7.984 7.984 0 0 0-2.784 2.16c-.768.896-1.36 1.984-1.776 3.264-.384 1.248-.576 2.624-.576 4.128v13.344h-1.824V62.112Z"/></svg>