<svg xmlns="http://www.w3.org/2000/svg" width="365" height="48" fill="none"><path fill="#000" d="M12.377 31.616c-.043 2.347.32 4.31 1.088 5.888.768 1.579 1.813 2.837 3.136 3.776 1.365.939 2.965 1.621 4.8 2.048 1.835.384 3.797.576 5.888.576 1.195 0 2.496-.17 3.904-.512a13.683 13.683 0 0 0 3.904-1.6 10.439 10.439 0 0 0 3.072-2.88c.81-1.195 1.216-2.624 1.216-4.288 0-1.28-.299-2.39-.896-3.328a7.403 7.403 0 0 0-2.24-2.368 11.756 11.756 0 0 0-3.008-1.536 26.002 26.002 0 0 0-3.264-1.024l-10.176-2.496a32.097 32.097 0 0 1-3.904-1.28 11.134 11.134 0 0 1-3.264-2.048c-.939-.853-1.707-1.899-2.304-3.136-.555-1.237-.832-2.752-.832-4.544 0-1.11.213-2.41.64-3.904.427-1.493 1.216-2.901 2.368-4.224 1.195-1.323 2.816-2.432 4.864-3.328C19.417.469 22.041 0 25.241 0c2.261 0 4.416.299 6.464.896s3.84 1.493 5.376 2.688c1.536 1.195 2.752 2.688 3.648 4.48.939 1.75 1.408 3.797 1.408 6.144h-4.352c-.085-1.75-.49-3.264-1.216-4.544A9.31 9.31 0 0 0 33.817 6.4c-1.11-.896-2.41-1.557-3.904-1.984a14.878 14.878 0 0 0-4.608-.704c-1.493 0-2.944.17-4.352.512-1.365.299-2.581.81-3.648 1.536-1.024.683-1.856 1.6-2.496 2.752-.64 1.152-.96 2.581-.96 4.288 0 1.067.17 2.005.512 2.816.384.768.896 1.43 1.536 1.984a8.09 8.09 0 0 0 2.176 1.344c.853.341 1.75.619 2.688.832l11.136 2.752c1.621.427 3.136.96 4.544 1.6 1.45.597 2.71 1.365 3.776 2.304a8.947 8.947 0 0 1 2.56 3.328c.64 1.323.96 2.923.96 4.8 0 .512-.064 1.195-.192 2.048-.085.853-.341 1.77-.768 2.752-.384.939-.96 1.899-1.728 2.88-.725.981-1.75 1.877-3.072 2.688-1.28.768-2.88 1.387-4.8 1.856-1.92.512-4.224.768-6.912.768-2.688 0-5.184-.299-7.488-.896-2.304-.64-4.267-1.6-5.888-2.88-1.621-1.28-2.88-2.923-3.776-4.928-.853-2.005-1.216-4.416-1.088-7.232h4.352Zm46.457-17.984h6.72v3.392h-6.72v22.272c0 1.323.17 2.368.511 3.136.385.725 1.302 1.13 2.752 1.216 1.152 0 2.304-.064 3.456-.192v3.392c-.597 0-1.194.021-1.791.064-.598.043-1.195.064-1.793.064-2.688 0-4.565-.512-5.632-1.536-1.066-1.067-1.578-3.008-1.536-5.824V17.024h-5.76v-3.392h5.76v-9.92h4.032v9.92Zm15.097 0h3.712v7.744h.128c1.024-2.688 2.603-4.757 4.736-6.208 2.176-1.45 4.757-2.112 7.744-1.984v4.032c-1.835-.085-3.499.17-4.992.768a11.18 11.18 0 0 0-3.904 2.432c-1.067 1.067-1.899 2.347-2.496 3.84-.597 1.45-.896 3.05-.896 4.8v17.6h-4.032V13.632Zm22.363 10.112c.129-1.92.534-3.584 1.216-4.992.683-1.408 1.6-2.56 2.753-3.456 1.194-.896 2.581-1.557 4.16-1.984 1.578-.427 3.328-.64 5.248-.64 1.45 0 2.901.15 4.352.448 1.45.256 2.752.768 3.904 1.536 1.152.768 2.09 1.856 2.816 3.264.725 1.365 1.088 3.157 1.088 5.376v17.536c0 1.621.789 2.432 2.368 2.432.469 0 .896-.085 1.28-.256V46.4c-.47.085-.896.15-1.28.192-.342.043-.79.064-1.344.064-1.024 0-1.856-.128-2.496-.384a3.562 3.562 0 0 1-1.408-1.216c-.342-.512-.576-1.11-.704-1.792a20.19 20.19 0 0 1-.128-2.368h-.128a27.037 27.037 0 0 1-2.24 2.88 10.516 10.516 0 0 1-2.496 2.048c-.896.555-1.942.981-3.136 1.28-1.152.299-2.539.448-4.16.448-1.536 0-2.987-.192-4.352-.576-1.323-.341-2.496-.896-3.52-1.664a9.16 9.16 0 0 1-2.368-3.008c-.555-1.237-.832-2.688-.832-4.352 0-2.304.511-4.096 1.535-5.376 1.025-1.323 2.368-2.325 4.033-3.008 1.706-.683 3.605-1.152 5.696-1.408a294.13 294.13 0 0 1 6.464-.832 23.48 23.48 0 0 0 2.24-.32c.64-.128 1.173-.341 1.6-.64a3.12 3.12 0 0 0 .96-1.344c.256-.555.384-1.28.384-2.176 0-1.365-.235-2.475-.704-3.328a4.97 4.97 0 0 0-1.856-2.112c-.768-.512-1.686-.853-2.752-1.024a16.325 16.325 0 0 0-3.328-.32c-2.56 0-4.651.619-6.272 1.856-1.622 1.195-2.475 3.136-2.56 5.824h-4.032Zm21.505 4.864h-.128c-.256.47-.747.81-1.472 1.024-.726.213-1.366.363-1.92.448-1.707.299-3.478.576-5.312.832-1.792.213-3.435.555-4.928 1.024-1.494.47-2.731 1.152-3.712 2.048-.94.853-1.409 2.09-1.409 3.712 0 1.024.192 1.941.576 2.752a7.63 7.63 0 0 0 1.665 2.048 7.446 7.446 0 0 0 2.368 1.28 8.645 8.645 0 0 0 2.752.448c1.536 0 3.008-.235 4.416-.704 1.408-.47 2.624-1.152 3.648-2.048a9.415 9.415 0 0 0 2.496-3.264c.64-1.28.96-2.73.96-4.352v-5.248Zm11.299-14.976h4.288l8.448 28.288h.128l8.064-28.288h4.544l8.064 28.288h.128l8.448-28.288h4.288l-10.624 33.024h-4.416L152.33 18.88h-.128l-8.064 27.776h-4.416l-10.624-33.024Zm79.984-4.528c.447.09.677.17.868.597-.103.751-2.242 2.243-2.9 2.761a346.204 346.204 0 0 0-4.349 3.474 167.422 167.422 0 0 0-21.612 21.557c-1.618 1.913-3.036 4.063-4.591 5.888l-.1.116c-.39-.139-.648-.178-.898-.51-.078-.897 2.48-3.843 3.124-4.666a153.717 153.717 0 0 1 30.458-29.217Zm.175 14.494.453.233c.107.18.213.27.195.491-.059.748-4.829 5.366-5.652 6.259-2.844 3.082-5.673 6.375-8.174 9.758-1.668 2.256-3.4 5.297-5.343 7.213-.26-.144-.312-.214-.534-.422-.294-1.11 1.484-3.246 2.147-4.175a135.45 135.45 0 0 1 12.878-15.535c.988-1.04 2.877-3.076 4.03-3.822Zm1.181 14.482c.492.093.699.09.839.617-.127.58-5.668 6.702-6.537 7.586l-.397-.085c-.368-.352-.247-.145-.378-.644.216-1.453 5.194-6.365 6.473-7.473Zm13.639-25.472 11.376 30.048 11.808-30.048h4.8V46.88h-3.264V17.264h-.096L236.989 46.88h-3.072l-11.28-29.616h-.096V46.88h-3.264V12.608h4.8Zm46.526 11.328c-1.44 0-2.704.304-3.792.912a8.575 8.575 0 0 0-2.736 2.4c-.704.992-1.248 2.128-1.632 3.408a14.078 14.078 0 0 0-.528 3.84 14.6 14.6 0 0 0 .528 3.888 11.708 11.708 0 0 0 1.632 3.36 8.575 8.575 0 0 0 2.736 2.4c1.088.608 2.352.912 3.792.912s2.704-.304 3.792-.912a8.085 8.085 0 0 0 2.688-2.4 10.256 10.256 0 0 0 1.632-3.36c.384-1.28.576-2.576.576-3.888 0-1.312-.192-2.592-.576-3.84-.352-1.28-.896-2.416-1.632-3.408a8.085 8.085 0 0 0-2.688-2.4c-1.088-.608-2.352-.912-3.792-.912Zm0-2.544c1.888 0 3.552.352 4.992 1.056 1.472.704 2.704 1.648 3.696 2.832s1.744 2.576 2.256 4.176c.512 1.568.768 3.248.768 5.04 0 1.792-.256 3.488-.768 5.088-.512 1.568-1.264 2.944-2.256 4.128-.992 1.184-2.224 2.128-3.696 2.832-1.44.672-3.104 1.008-4.992 1.008s-3.568-.336-5.04-1.008a10.994 10.994 0 0 1-3.648-2.832c-.992-1.184-1.744-2.56-2.256-4.128-.512-1.6-.768-3.296-.768-5.088 0-1.792.256-3.472.768-5.04.512-1.6 1.264-2.992 2.256-4.176a10.994 10.994 0 0 1 3.648-2.832c1.472-.704 3.152-1.056 5.04-1.056Zm22.928.72h5.04v2.544h-5.04V41.36c0 .992.128 1.776.384 2.352.288.544.976.848 2.064.912.864 0 1.728-.048 2.592-.144v2.544c-.448 0-.896.016-1.344.048-.448.032-.896.048-1.344.048-2.016 0-3.424-.384-4.224-1.152-.8-.8-1.184-2.256-1.152-4.368V24.656h-4.32v-2.544h4.32v-7.44h3.024v7.44Zm11.371-9.504h3.024v4.848h-3.024v-4.848Zm0 9.504h3.024V46.88h-3.024V22.112Zm21.196 1.824c-1.44 0-2.704.304-3.792.912a8.575 8.575 0 0 0-2.736 2.4c-.704.992-1.248 2.128-1.632 3.408a14.078 14.078 0 0 0-.528 3.84 14.6 14.6 0 0 0 .528 3.888 11.708 11.708 0 0 0 1.632 3.36 8.575 8.575 0 0 0 2.736 2.4c1.088.608 2.352.912 3.792.912s2.704-.304 3.792-.912a8.085 8.085 0 0 0 2.688-2.4 10.256 10.256 0 0 0 1.632-3.36c.384-1.28.576-2.576.576-3.888 0-1.312-.192-2.592-.576-3.84-.352-1.28-.896-2.416-1.632-3.408a8.085 8.085 0 0 0-2.688-2.4c-1.088-.608-2.352-.912-3.792-.912Zm0-2.544c1.888 0 3.552.352 4.992 1.056 1.472.704 2.704 1.648 3.696 2.832s1.744 2.576 2.256 4.176c.512 1.568.768 3.248.768 5.04 0 1.792-.256 3.488-.768 5.088-.512 1.568-1.264 2.944-2.256 4.128-.992 1.184-2.224 2.128-3.696 2.832-1.44.672-3.104 1.008-4.992 1.008s-3.568-.336-5.04-1.008a10.994 10.994 0 0 1-3.648-2.832c-.992-1.184-1.744-2.56-2.256-4.128-.512-1.6-.768-3.296-.768-5.088 0-1.792.256-3.472.768-5.04.512-1.6 1.264-2.992 2.256-4.176a10.994 10.994 0 0 1 3.648-2.832c1.472-.704 3.152-1.056 5.04-1.056Zm18.079.72h3.024v4.272h.096c.576-1.504 1.6-2.704 3.072-3.6a8.912 8.912 0 0 1 4.848-1.392c1.728 0 3.168.224 4.32.672 1.184.448 2.128 1.088 2.832 1.92.704.8 1.2 1.792 1.488 2.976.288 1.184.432 2.512.432 3.984V46.88h-3.024V31.424c0-1.056-.096-2.032-.288-2.928-.192-.928-.528-1.728-1.008-2.4-.48-.672-1.136-1.2-1.968-1.584-.8-.384-1.808-.576-3.024-.576s-2.304.224-3.264.672a6.909 6.909 0 0 0-2.4 1.776c-.64.736-1.152 1.632-1.536 2.688-.352 1.024-.544 2.144-.576 3.36V46.88h-3.024V22.112Z"/></svg>